<svg xmlns="http://www.w3.org/2000/svg" xmlns:xlink="http://www.w3.org/1999/xlink" version="1.1" width="221.58582pt" height="171.71973pt" viewBox="0 0 221.58582 171.71973">
<path transform="matrix(1,0,0,-1,0,171.71973)" d="M130.328 59.9658C131.083 56.3738 124.755 51.9988 116.181 50.1777 107.606 48.3657 100.048 49.8027 99.2838 53.3857 98.5198 56.9768 104.858 61.3528 113.432 63.1738 121.997 64.9849 129.564 63.5488 130.328 59.9658Z" fill="#2e7cb2"/>
<path transform="matrix(1,0,0,-1,0,171.71973)" stroke-width="3.622" stroke-linecap="butt" stroke-miterlimit="10" stroke-linejoin="miter" fill="none" stroke="#00041d" d="M130.328 59.9658C131.083 56.3738 124.755 51.9988 116.181 50.1777 107.606 48.3657 100.048 49.8027 99.2838 53.3857 98.5198 56.9768 104.858 61.3528 113.432 63.1738 121.997 64.9849 129.564 63.5488 130.328 59.9658Z"/>
<path transform="matrix(1,0,0,-1,0,171.71973)" d="M70.2295 139.912C71.3785 139.852 72.5325 139.547 73.6165 138.975 77.6165 136.864 79.1475 131.912 77.0375 127.912L56.7735 89.5076C55.2355 86.5925 52.1865 84.9885 49.0975 85.1506 47.9485 85.2107 46.7945 85.5156 45.7105 86.0876 41.7115 88.1975 40.1795 93.1506 42.2895 97.1506L62.5535 135.555C64.0925 138.47 67.1405 140.074 70.2295 139.912M70.3715 142.625V142.625C66.1395 142.847 62.1285 140.569 60.1515 136.822L39.8875 98.4187C38.5275 95.8425 38.2535 92.8906 39.1135 90.1077 39.9735 87.3257 41.8665 85.0447 44.4425 83.6846 45.8535 82.9407 47.3715 82.5205 48.9555 82.4375 53.1875 82.2156 57.1995 84.4937 59.1765 88.2407L79.4405 126.644C80.7995 129.221 81.0745 132.172 80.2135 134.955 79.3535 137.737 77.4605 140.019 74.8845 141.378 73.4735 142.122 71.9555 142.542 70.3715 142.625" fill="#231f20"/>
<path transform="matrix(1,0,0,-1,0,171.71973)" d="M51.6195 89.6758V89.6758C47.6195 91.7859 46.0885 96.7388 48.1985 100.739L68.4625 139.143C68.5965 139.396 68.7415 139.639 68.8975 139.872 66.2915 139.582 63.8695 138.048 62.5535 135.554L42.2895 97.1509C40.1795 93.1509 41.7115 88.1977 45.7105 86.0879 49.4565 84.1108 54.0395 85.3298 56.3395 88.7788 54.7655 88.6038 53.1255 88.8818 51.6195 89.6758" fill="#89643f"/>
<path transform="matrix(1,0,0,-1,0,171.71973)" d="M77.0375 127.912C79.1475 131.911 77.6165 136.865 73.6165 138.975 72.1115 139.769 70.4705 140.047 68.8975 139.872 68.7415 139.639 68.5965 139.396 68.4625 139.143L48.1985 100.739C46.0885 96.7388 47.6205 91.7859 51.6195 89.6758 53.1255 88.8809 54.7655 88.6038 56.3395 88.7788 56.4945 89.012 56.6395 89.2549 56.7735 89.5078Z" fill="#c49a6c"/>
<path transform="matrix(1,0,0,-1,0,171.71973)" d="M155.864 163.224C156.686 163.181 157.458 163.074 158.172 162.94L207.425 151.783C212.955 150.53 216.423 145.031 215.17 139.501 214.05 134.553 209.531 131.256 204.631 131.513 204.054 131.543 203.471 131.623 202.888 131.755L155.841 142.412 122.19 127.316C120.651 126.626 119.034 126.345 117.458 126.428 113.735 126.623 110.25 128.846 108.619 132.481 106.298 137.655 108.61 143.731 113.784 146.052L149.607 162.123C151.879 163.093 153.999 163.322 155.864 163.224M156.006 165.937C153.415 166.073 150.903 165.63 148.541 164.622L148.518 164.612 148.495 164.602 112.672 148.531C109.508 147.111 107.086 144.544 105.852 141.303 104.618 138.061 104.721 134.534 106.14 131.369 108.143 126.904 112.426 123.971 117.316 123.715 119.357 123.608 121.427 123.996 123.302 124.837L156.125 139.563 202.288 129.106C203.012 128.942 203.752 128.839 204.489 128.8 210.812 128.469 216.419 132.717 217.82 138.9 218.586 142.283 217.989 145.761 216.139 148.695 214.289 151.629 211.407 153.666 208.025 154.432L158.772 165.589 158.724 165.6 158.675 165.609C157.748 165.784 156.875 165.891 156.006 165.937" fill="#231f20"/>
<path transform="matrix(1,0,0,-1,0,171.71973)" d="M206.002 137.653 158.955 148.31 125.304 133.214C120.13 130.893 114.054 133.205 111.733 138.379 110.888 140.263 110.664 142.265 110.962 144.163 107.859 141.247 106.778 136.584 108.618 132.482 110.939 127.308 117.015 124.996 122.189 127.317L155.84 142.413 202.887 131.756C208.418 130.503 213.917 133.971 215.17 139.502 215.22 139.725 215.251 139.947 215.286 140.17 212.884 137.926 209.45 136.872 206.002 137.653" fill="#89643f"/>
<path transform="matrix(1,0,0,-1,0,171.71973)" d="M207.424 151.783 158.171 162.94C155.839 163.38 152.879 163.521 149.607 162.124L113.784 146.052C112.712 145.572 111.772 144.923 110.962 144.162 110.664 142.264 110.888 140.262 111.733 138.378 114.054 133.204 120.13 130.892 125.304 133.213L158.955 148.311 206.002 137.652C209.449 136.871 212.884 137.927 215.286 140.169 216.127 145.469 212.731 150.582 207.424 151.783" fill="#c49a6c"/>
<path transform="matrix(1,0,0,-1,0,171.71973)" d="M96.978 164.51C113.298 163.655 126.989 150.989 128.645 134.229 130.472 115.745 116.968 99.2786 98.484 97.4514 96.76 97.2815 95.052 97.2446 93.374 97.3325 77.054 98.1875 63.363 110.853 61.707 127.614 59.88 146.097 73.384 162.563 91.868 164.391 93.592 164.561 95.3 164.597 96.978 164.51M97.121 167.222H97.12C95.292 167.319 93.435 167.274 91.601 167.094 81.939 166.138 73.227 161.479 67.07 153.971 60.913 146.464 58.049 137.009 59.003 127.346 59.864 118.643 63.831 110.541 70.174 104.536 76.452 98.5915 84.641 95.0696 93.232 94.6196 95.059 94.5234 96.916 94.5676 98.751 94.7485 108.413 95.7036 117.125 100.364 123.282 107.872 129.439 115.378 132.303 124.834 131.348 134.496 130.488 143.199 126.521 151.3 120.178 157.305 113.9 163.25 105.712 166.772 97.121 167.222" fill="#231f20"/>
<path transform="matrix(1,0,0,-1,0,171.71973)" d="M69.0209 137.789C68.4059 144.009 69.5339 149.997 71.9959 155.278 64.7549 148.378 60.6469 138.339 61.7069 127.613 63.5339 109.129 79.9989 95.6248 98.4839 97.4519 110.749 98.6638 120.814 106.324 125.67 116.739 120.432 111.747 113.557 108.394 105.798 107.628 87.3129 105.801 70.8479 119.304 69.0209 137.789" fill="#89643f"/>
<path transform="matrix(1,0,0,-1,0,171.71973)" d="M91.8682 164.39C84.1092 163.623 77.2342 160.27 71.9962 155.278 69.5332 149.996 68.4062 144.008 69.0212 137.789 70.8472 119.304 87.3132 105.801 105.798 107.627 113.557 108.394 120.431 111.747 125.67 116.739 128.132 122.021 129.259 128.009 128.645 134.229 126.818 152.713 110.352 166.217 91.8682 164.39" fill="#c49a6c"/>
<path transform="matrix(1,0,0,-1,0,171.71973)" d="M104.303 136.633C105.093 136.592 105.884 136.451 106.663 136.196L107.887 135.796C113.202 134.059 116.102 128.342 114.365 123.027L114.003 121.918C114.248 121.282 114.459 120.625 114.603 119.936L135.205 20.9751C136.627 14.145 132.243 7.45508 125.412 6.03296 124.32 5.80518 123.232 5.72607 122.168 5.78198 116.577 6.07495 111.664 10.0872 110.47 15.8262L89.867 114.786C88.709 121.979 91.225 125.752 93.341 130.063 95.147 133.743 99.703 136.874 104.303 136.633M104.445 139.346C99.036 139.629 93.341 136.229 90.902 131.26 90.673 130.795 90.44 130.336 90.207 129.878 88.242 126.009 86.014 121.625 87.185 114.354L87.195 114.293 87.207 114.232 107.81 15.272C109.23 8.45117 115.076 3.43311 122.025 3.06909 123.341 3 124.666 3.10205 125.966 3.37305 129.98 4.20898 133.428 6.55713 135.675 9.98706 137.923 13.416 138.7 17.5151 137.865 21.5291L117.262 120.489C117.162 120.968 117.033 121.453 116.872 121.953L116.948 122.183C119.147 128.914 115.462 136.179 108.731 138.378L107.507 138.779C106.523 139.1 105.493 139.291 104.445 139.346" fill="#231f20"/>
<path transform="matrix(1,0,0,-1,0,171.71973)" d="M130.473 14.4551C123.64 13.0601 116.968 17.262 115.571 23.8401L95.3288 119.147C94.1968 126.076 96.7258 129.721 98.8558 133.884 99.2418 134.637 99.7538 135.364 100.36 136.044 97.2818 134.992 94.6198 132.67 93.3408 130.063 91.2248 125.752 88.7088 121.979 89.8668 114.786L110.47 15.8252C111.892 8.99512 118.582 4.61108 125.412 6.03296 130.74 7.14209 134.565 11.46 135.322 16.5461 133.915 15.5571 132.283 14.824 130.473 14.4551Z" fill="#89643f"/>
<path transform="matrix(1,0,0,-1,0,171.71973)" d="M135.205 20.9751 114.602 119.935C114.459 120.625 114.248 121.282 114.003 121.918L114.365 123.027C116.102 128.342 113.202 134.059 107.887 135.796L106.663 136.196C104.561 136.883 102.372 136.733 100.359 136.044 99.754 135.364 99.241 134.636 98.856 133.884 96.726 129.721 94.197 126.076 95.329 119.147L115.571 23.8401C116.968 17.2622 123.64 13.0601 130.473 14.4551 132.283 14.8242 133.915 15.5571 135.321 16.5461 135.535 17.98 135.518 19.4722 135.205 20.9751" fill="#c49a6c"/>
<path transform="matrix(1,0,0,-1,0,171.71973)" d="M130.328 59.9658C129.564 63.5488 121.997 64.9849 113.432 63.1738 104.858 61.3528 98.5198 56.9768 99.2838 53.3857L91.7098 89.1448C90.9458 92.7358 97.2828 97.1118 105.848 98.9319 114.423 100.744 121.99 99.3079 122.745 95.7239Z" fill="#00bbe2"/>
<path transform="matrix(1,0,0,-1,0,171.71973)" stroke-width="3.622" stroke-linecap="butt" stroke-miterlimit="10" stroke-linejoin="miter" fill="none" stroke="#00041d" d="M130.328 59.9658C129.564 63.5488 121.997 64.9849 113.432 63.1738 104.858 61.3528 98.5198 56.9768 99.2838 53.3857L91.7098 89.1448C90.9458 92.7358 97.2828 97.1118 105.848 98.9319 114.423 100.744 121.99 99.3079 122.745 95.7239L130.328 59.9658Z"/>
<path transform="matrix(1,0,0,-1,0,171.71973)" d="M95.8026 78.4072C95.7066 80.5523 98.8776 83.1191 101.178 83.6352L102.332 78.3171C99.4536 77.2832 97.9146 75.7441 96.8766 73.3882Z" fill="#00041d"/>
<path transform="matrix(1,0,0,-1,0,171.71973)" d="M98.1305 67.4551C98.0345 69.6001 101.206 72.167 103.506 72.6831L104.66 67.365C101.782 66.3311 100.243 64.792 99.2045 62.436Z" fill="#00041d"/>
<path transform="matrix(1,0,0,-1,0,171.71973)" d="M99.9698 89.3503 101.178 83.6352C103.526 85.0303 105.844 85.5413 107.789 85.7334L106.64 91.5125C104.449 91.4692 101.296 90.4624 99.9698 89.3503" fill="#00041d"/>
<path transform="matrix(1,0,0,-1,0,171.71973)" d="M102.323 78.4009 103.531 72.6858C105.879 74.0808 108.197 74.5918 110.142 74.7839L108.993 80.563C106.802 80.5198 103.649 79.5129 102.323 78.4009" fill="#00041d"/>
<path transform="matrix(1,0,0,-1,0,171.71973)" d="M104.619 67.4456 105.827 61.7305C108.175 63.1255 110.493 63.6365 112.438 63.8286L111.289 69.6077C109.098 69.5644 105.945 68.5576 104.619 67.4456" fill="#00041d"/>
<path transform="matrix(1,0,0,-1,0,171.71973)" d="M112.673 81.1125C112.663 81.3386 112.638 81.6355 112.6 82.0015 112.563 82.3706 112.527 82.7466 112.495 83.1316 112.942 83.6585 113.35 84.1545 113.719 84.6245 114.316 85.3875 114.842 86.0796 115.295 86.7136 115.657 87.2185 115.955 87.6726 116.191 88.0776 116.326 88.3166 116.41 88.5115 116.445 88.6636 116.47 88.7686 116.475 88.8745 116.461 88.9805 116.443 89.1206 116.395 89.2375 116.318 89.3315 116.242 89.4265 116.132 89.5005 115.987 89.5525 115.842 89.6035 115.67 89.6355 115.471 89.6465 115.272 89.6565 115.05 89.6397 114.803 89.5935 114.465 89.5295 114.112 89.4275 113.746 89.2866 113.379 89.1465 112.883 88.9185 112.259 88.5835 112.276 88.9356 112.293 89.2876 112.31 89.6406 112.325 89.8535 112.336 90.2566 112.339 90.8506 113.579 91.4016 114.757 91.7556 115.867 91.9316 116.374 92.0125 116.865 92.0315 117.339 91.9905 117.814 91.9504 118.248 91.8296 118.641 91.6326 119.035 91.4356 119.341 91.1885 119.561 90.8997 119.781 90.6096 119.913 90.2915 119.957 89.9475 119.986 89.7214 119.989 89.4976 119.965 89.2756 119.939 89.0635 119.873 88.8135 119.768 88.5247 119.631 88.1675 119.451 87.8125 119.228 87.4585 118.898 86.9285 118.506 86.3745 118.055 85.7896 117.622 85.2356 117.097 84.6035 116.478 83.8806 116.744 83.9106 117.009 83.9385 117.274 83.9617 117.462 83.9795 117.832 84.0215 118.385 84.0676 118.938 84.1116 119.32 84.1316 119.534 84.1475 119.747 84.1636 120.01 84.1904 120.319 84.2256 120.335 83.9885 120.35 83.6926 120.364 83.3376 120.378 82.9836 120.401 82.5486 120.433 82.0356 119.249 82.0544 117.999 81.9985 116.69 81.8486 115.109 81.6665 113.767 81.3897 112.673 81.1125" fill="#00041d"/>
<path transform="matrix(1,0,0,-1,0,171.71973)" d="M93.4413 89.4399C93.3453 91.585 96.5163 94.1519 98.8163 94.668L99.9703 89.3499C97.0923 88.3159 95.5533 86.7769 94.5153 84.4209Z" fill="#00041d"/>
<path transform="matrix(1,0,0,-1,0,171.71973)" d="M105.255 156.067C106.974 151.156 105.362 146.122 101.653 144.824 97.9453 143.526 93.5453 146.455 91.8263 151.366 90.1073 156.278 91.7193 161.311 95.4283 162.61 99.1363 163.908 103.536 160.978 105.255 156.067Z" fill="#ffffff"/>
<path transform="matrix(1,0,0,-1,0,171.71973)" stroke-width="2.717" stroke-linecap="butt" stroke-miterlimit="10" stroke-linejoin="miter" fill="none" stroke="#00041d" d="M105.255 156.067C106.974 151.156 105.362 146.122 101.653 144.824 97.9453 143.526 93.5453 146.455 91.8263 151.366 90.1073 156.278 91.7193 161.311 95.4283 162.61 99.1363 163.908 103.536 160.978 105.255 156.067Z"/>
<path transform="matrix(1,0,0,-1,0,171.71973)" d="M103.74 153.557C104.501 151.382 103.787 149.154 102.145 148.579 100.503 148.004 98.5553 149.301 97.7943 151.476 97.0333 153.65 97.7473 155.879 99.3893 156.454 101.031 157.029 102.979 155.732 103.74 153.557" fill="#00041d"/>
<path transform="matrix(1,0,0,-1,0,171.71973)" d="M117.517 161.916C119.009 157.654 117.61 153.286 114.392 152.16 111.174 151.033 107.356 153.575 105.864 157.837 104.372 162.099 105.771 166.467 108.989 167.593 112.207 168.72 116.025 166.178 117.517 161.916Z" fill="#ffffff"/>
<path transform="matrix(1,0,0,-1,0,171.71973)" stroke-width="2.717" stroke-linecap="butt" stroke-miterlimit="10" stroke-linejoin="miter" fill="none" stroke="#00041d" d="M117.517 161.916C119.009 157.654 117.61 153.286 114.392 152.16 111.174 151.033 107.356 153.575 105.864 157.837 104.372 162.099 105.771 166.467 108.989 167.593 112.207 168.72 116.025 166.178 117.517 161.916Z"/>
<path transform="matrix(1,0,0,-1,0,171.71973)" d="M115.624 159.387C116.311 157.423 115.667 155.411 114.184 154.892 112.701 154.374 110.942 155.544 110.255 157.509 109.568 159.471 110.212 161.484 111.695 162.003 113.178 162.522 114.937 161.352 115.624 159.387" fill="#00041d"/>
<path transform="matrix(1,0,0,-1,0,171.71973)" d="M41.2879 120.273C35.6679 122.293 30.8969 125.613 26.2949 129.281 22.1699 132.356 16.3479 136.712 12.3679 139.864L12.5209 140.089C16.8989 137.577 23.1459 133.761 27.5139 131.082 32.6279 128.168 37.4799 124.969 41.4399 120.499L41.2879 120.273" fill="#00041d"/>
<path transform="matrix(1,0,0,-1,0,171.71973)" d="M39.117 114.779C32.301 117.533 26.33 121.597 20.532 126.001 15.348 129.729 8.02701 135.009 3 138.806L3.151 139.033C8.565 135.882 16.317 131.139 21.736 127.81 28.038 124.164 34.094 120.228 39.267 115.005 39.268 115.005 39.117 114.779 39.117 114.779" fill="#00041d"/>
<path transform="matrix(1,0,0,-1,0,171.71973)" d="M35.1761 109.862C30.1341 111.469 25.9301 114.375 21.8911 117.64 17.7621 120.686 13.6901 123.809 9.6661 126.996L9.8171 127.222C14.2891 124.702 18.7211 122.114 23.1021 119.444 27.6531 116.939 31.9331 114.147 35.3271 110.087 35.3271 110.088 35.1761 109.862 35.1761 109.862" fill="#00041d"/>
<path transform="matrix(1,0,0,-1,0,171.71973)" d="M113.076 38.5234C108.364 35.4055 103.14 33.7485 97.7367 32.4404 93.0607 31.1365 86.4507 29.3064 81.7997 28.1633L81.7137 28.4214C86.1027 30.2715 92.5417 32.7664 97.0527 34.5034 102.169 36.6804 107.349 38.4705 112.991 38.7815L113.076 38.5234" fill="#00041d"/>
<path transform="matrix(1,0,0,-1,0,171.71973)" d="M113.452 32.3193C110.034 29.6714 106.115 28.4683 101.995 27.6252 98.0038 26.5774 93.9888 25.6204 89.9538 24.7415L89.8708 25.0002C93.6588 26.6433 97.4758 28.2134 101.328 29.6934 105.164 31.4163 109.048 32.7302 113.369 32.5774 113.369 32.5784 113.452 32.3193 113.452 32.3193" fill="#00041d"/>
<path transform="matrix(1,0,0,-1,0,171.71973)" d="M112.161 24.9983C108.083 22.0703 103.485 20.5952 98.698 19.4702 94.033 18.1414 89.342 16.9053 84.63 15.7454L84.543 16.0022C88.999 17.9233 93.485 19.7712 98.006 21.5303 102.5 23.5254 107.056 25.1262 112.074 25.2554 112.074 25.2564 112.161 24.9983 112.161 24.9983" fill="#00041d"/>
<path transform="matrix(1,0,0,-1,0,171.71973)" d="M178.381 140.446C176.445 135.137 173.228 130.7 169.66 126.438 166.674 122.61 162.446 117.209 159.384 113.526L159.163 113.683C161.593 117.779 165.288 123.612 167.884 127.691 170.704 132.48 173.807 137 178.159 140.603Z" fill="#00041d"/>
<path transform="matrix(1,0,0,-1,0,171.71973)" d="M185.868 138.431C184.693 134.27 182.256 130.974 179.444 127.847 176.857 124.632 174.196 121.476 171.474 118.372L171.253 118.53C173.323 122.103 175.46 125.634 177.678 129.114 179.739 132.779 182.082 136.144 185.647 138.589L185.868 138.431" fill="#00041d"/>
<path transform="matrix(1,0,0,-1,0,171.71973)" d="M192.626 137.035C191.086 132.257 188.266 128.338 185.084 124.588 182.122 120.747 179.084 116.964 175.983 113.231L175.761 113.387C178.203 117.58 180.712 121.732 183.303 125.834 185.732 130.109 188.445 134.104 192.403 137.191L192.626 137.035" fill="#00041d"/>
</svg>
